<svg width="10" height="10" viewBox="0 0 10 10" xmlns="http://www.w3.org/2000/svg"><g fill="#FFA000" fill-rule="evenodd"><path d="M3.758 4.984c0 .686.556 1.243 1.242 1.243.686 0 1.242-.557 1.242-1.243 0-.685-.556-1.242-1.242-1.242-.686 0-1.242.557-1.242 1.242z"/><path d="M9.66 4.44h-.45C8.957 2.553 7.48 1.064 5.6.795V.3c0-.165-.135-.3-.3-.3h-.6c-.165 0-.3.135-.3.3v.495C2.518 1.065 1.042 2.553.79 4.44H.3c-.165 0-.3.135-.3.3v.6c0 .165.135.3.3.3h.5c.28 1.85 1.745 3.3 3.6 3.565V9.7c0 .165.135.3.3.3h.6c.165 0 .3-.135.3-.3v-.495C7.455 8.94 8.92 7.49 9.2 5.64h.46c.165 0 .3-.135.3-.3v-.6c0-.165-.135-.3-.3-.3zM5.6 8.21c0-.165-.135-.3-.3-.3h-.6c-.165 0-.3.135-.3.3v.26c-1.452-.25-2.6-1.383-2.867-2.83h.257c.165 0 .3-.135.3-.3v-.6c0-.165-.135-.3-.3-.3h-.265c.24-1.484 1.397-2.656 2.875-2.91v.26c0 .165.135.3.3.3h.6c.165 0 .3-.135.3-.3v-.26c1.478.254 2.636 1.426 2.875 2.91H8.17c-.165 0-.3.135-.3.3v.6c0 .165.135.3.3.3h.297C8.2 7.087 7.052 8.22 5.6 8.47v-.26z"/></g></svg>